<svg width="1200" height="430" viewBox="0 0 1200 430" fill="none" xmlns="http://www.w3.org/2000/svg" role="img" aria-labelledby="title desc">
  <title id="title">Aarav Kapoor animated dark ops AI builder header</title>
  <desc id="desc">Original crimson noir animated GitHub profile banner with a city skyline, scanlines, rain, radar pulses, and AI project cards.</desc>
  <style>
    .rain-a { animation: rain 1.8s linear infinite; }
    .rain-b { animation: rain 2.4s linear infinite; animation-delay: .4s; }
    .rain-c { animation: rain 3.1s linear infinite; animation-delay: .9s; }
    .scan { animation: scan 4.2s ease-in-out infinite; }
    .glitch-red { animation: glitchRed 2.8s steps(1) infinite; }
    .glitch-cyan { animation: glitchCyan 3.2s steps(1) infinite; }
    .pulse { animation: pulse 2.6s ease-in-out infinite; transform-origin: center; }
    .pulse.two { animation-delay: .8s; }
    .pulse.three { animation-delay: 1.45s; }
    .ring { animation: ring 3.4s ease-out infinite; transform-origin: center; }
    .ring.two { animation-delay: 1.1s; }
    .ring.three { animation-delay: 2.2s; }
    .dash { stroke-dasharray: 520; stroke-dashoffset: 520; animation: dash 5s ease-in-out infinite; }
    .dash.two { animation-delay: 1s; }
    .typing { animation: typing 1s steps(1) infinite; }
    .flicker { animation: flicker 4s linear infinite; }
    .city { animation: cityGlow 5s ease-in-out infinite; }
    .cape { animation: cape 3.6s ease-in-out infinite; transform-origin: 586px 276px; }
    .eye { animation: eye 2.2s ease-in-out infinite; }
    .strike { stroke-dasharray: 220; stroke-dashoffset: 220; animation: strike 2.4s ease-in-out infinite; }
    .strike.two { animation-delay: .8s; }
    .strike.three { animation-delay: 1.4s; }

    @keyframes rain {
      0% { transform: translateY(-460px); opacity: 0; }
      12% { opacity: .75; }
      88% { opacity: .45; }
      100% { transform: translateY(460px); opacity: 0; }
    }

    @keyframes scan {
      0%, 100% { transform: translateY(-48px); opacity: 0; }
      16% { opacity: .65; }
      54% { opacity: .22; }
      86% { opacity: .55; }
    }

    @keyframes glitchRed {
      0%, 84%, 100% { transform: translate(0,0); opacity: .72; }
      85% { transform: translate(8px,-2px); opacity: 1; }
      87% { transform: translate(-6px,2px); opacity: .42; }
      89% { transform: translate(3px,0); opacity: .95; }
    }

    @keyframes glitchCyan {
      0%, 78%, 100% { transform: translate(0,0); opacity: .55; }
      79% { transform: translate(-9px,2px); opacity: .9; }
      81% { transform: translate(6px,-2px); opacity: .32; }
      83% { transform: translate(-3px,0); opacity: .8; }
    }

    @keyframes pulse {
      0%, 100% { opacity: .46; transform: scale(1); }
      50% { opacity: 1; transform: scale(1.07); }
    }

    @keyframes ring {
      0% { opacity: .75; transform: scale(.62); }
      75% { opacity: .12; }
      100% { opacity: 0; transform: scale(1.42); }
    }

    @keyframes dash {
      0% { stroke-dashoffset: 520; opacity: .08; }
      38% { stroke-dashoffset: 0; opacity: .95; }
      76% { stroke-dashoffset: -520; opacity: .28; }
      100% { stroke-dashoffset: -520; opacity: .08; }
    }

    @keyframes typing {
      0%, 50% { opacity: 1; }
      51%, 100% { opacity: 0; }
    }

    @keyframes flicker {
      0%, 11%, 13%, 54%, 56%, 100% { opacity: 1; }
      12%, 55% { opacity: .45; }
    }

    @keyframes cityGlow {
      0%, 100% { opacity: .34; }
      50% { opacity: .72; }
    }

    @keyframes cape {
      0%, 100% { transform: skewX(0deg) translateX(0); }
      50% { transform: skewX(-4deg) translateX(-8px); }
    }

    @keyframes eye {
      0%, 100% { opacity: .58; }
      50% { opacity: 1; }
    }

    @keyframes strike {
      0% { stroke-dashoffset: 220; opacity: 0; }
      22% { opacity: 1; }
      48% { stroke-dashoffset: 0; opacity: .95; }
      100% { stroke-dashoffset: -220; opacity: 0; }
    }
  </style>

  <defs>
    <linearGradient id="bg" x1="0" y1="0" x2="1200" y2="430" gradientUnits="userSpaceOnUse">
      <stop stop-color="#030407"/>
      <stop offset="0.34" stop-color="#111827"/>
      <stop offset="0.68" stop-color="#240608"/>
      <stop offset="1" stop-color="#050505"/>
    </linearGradient>
    <radialGradient id="redAura" cx="0" cy="0" r="1" gradientUnits="userSpaceOnUse" gradientTransform="translate(620 210) rotate(90) scale(250 520)">
      <stop stop-color="#FCA5A5" stop-opacity=".38"/>
      <stop offset=".34" stop-color="#EF4444" stop-opacity=".22"/>
      <stop offset=".72" stop-color="#7F1D1D" stop-opacity=".14"/>
      <stop offset="1" stop-color="#020617" stop-opacity="0"/>
    </radialGradient>
    <linearGradient id="blade" x1="86" y1="330" x2="1100" y2="74" gradientUnits="userSpaceOnUse">
      <stop stop-color="#FEE2E2"/>
      <stop offset=".28" stop-color="#EF4444"/>
      <stop offset=".62" stop-color="#38BDF8"/>
      <stop offset="1" stop-color="#F97316"/>
    </linearGradient>
    <linearGradient id="scanline" x1="0" y1="0" x2="0" y2="1">
      <stop stop-color="#EF4444" stop-opacity="0"/>
      <stop offset=".48" stop-color="#FCA5A5" stop-opacity=".7"/>
      <stop offset="1" stop-color="#EF4444" stop-opacity="0"/>
    </linearGradient>
    <filter id="hotGlow" x="-45%" y="-45%" width="190%" height="190%">
      <feGaussianBlur stdDeviation="12" result="blur"/>
      <feColorMatrix in="blur" type="matrix" values="0 0 0 0 0.95 0 0 0 0 0.1 0 0 0 0 0.08 0 0 0 .85 0"/>
      <feBlend in="SourceGraphic" mode="screen"/>
    </filter>
    <filter id="coldGlow" x="-45%" y="-45%" width="190%" height="190%">
      <feGaussianBlur stdDeviation="10" result="blur"/>
      <feColorMatrix in="blur" type="matrix" values="0 0 0 0 0.2 0 0 0 0 0.75 0 0 0 0 1 0 0 0 .75 0"/>
      <feBlend in="SourceGraphic" mode="screen"/>
    </filter>
  </defs>

  <rect width="1200" height="430" rx="26" fill="url(#bg)"/>
  <rect width="1200" height="430" rx="26" fill="url(#redAura)"/>

  <g class="city" fill="#020617" stroke="#EF4444" stroke-opacity=".22">
    <rect x="0" y="306" width="70" height="124"/>
    <rect x="84" y="270" width="58" height="160"/>
    <rect x="160" y="318" width="92" height="112"/>
    <rect x="270" y="250" width="74" height="180"/>
    <rect x="368" y="292" width="60" height="138"/>
    <rect x="446" y="330" width="98" height="100"/>
    <rect x="1018" y="286" width="64" height="144"/>
    <rect x="1102" y="242" width="56" height="188"/>
    <rect x="1170" y="316" width="46" height="114"/>
    <path d="M0 306H70M84 270H142M160 318H252M270 250H344M368 292H428M446 330H544M1018 286H1082M1102 242H1158M1170 316H1216"/>
  </g>

  <g opacity=".16" stroke="#F3F4F6">
    <path d="M0 54H1200M0 108H1200M0 162H1200M0 216H1200M0 270H1200M0 324H1200M0 378H1200"/>
    <path d="M75 0V430M150 0V430M225 0V430M300 0V430M375 0V430M450 0V430M525 0V430M600 0V430M675 0V430M750 0V430M825 0V430M900 0V430M975 0V430M1050 0V430M1125 0V430"/>
  </g>

  <g opacity=".3" stroke="#FCA5A5" stroke-width="2" stroke-linecap="round">
    <path class="rain-a" d="M86 -40L64 20M210 -90L180 -8M392 -36L362 48M558 -120L526 -34M784 -54L756 28M978 -110L944 -24M1118 -50L1086 34"/>
    <path class="rain-b" d="M142 -20L112 62M318 -118L288 -36M494 -66L468 18M688 -100L660 -18M856 -42L824 46M1038 -122L1008 -40"/>
    <path class="rain-c" d="M36 -100L8 -22M250 -54L220 30M430 -126L398 -38M632 -72L604 14M918 -92L890 -10M1160 -112L1132 -30"/>
  </g>

  <rect class="scan" x="0" y="0" width="1200" height="54" fill="url(#scanline)" opacity=".42"/>

  <g transform="translate(94 72)">
    <rect width="438" height="252" rx="18" fill="#030712" fill-opacity=".82" stroke="#EF4444" stroke-opacity=".32"/>
    <rect x="18" y="18" width="402" height="216" rx="12" fill="#050505" fill-opacity=".52" stroke="#FCA5A5" stroke-opacity=".13"/>
    <text x="36" y="62" fill="#FEE2E2" font-family="SFMono-Regular, Consolas, monospace" font-size="20">SYSTEM / PROFILE</text>
    <text class="glitch-red" x="36" y="112" fill="#F87171" font-family="SFMono-Regular, Consolas, monospace" font-size="34" font-weight="700">AARAV KAPOOR</text>
    <text class="glitch-cyan" x="39" y="112" fill="#38BDF8" font-family="SFMono-Regular, Consolas, monospace" font-size="34" font-weight="700">AARAV KAPOOR</text>
    <text x="36" y="158" fill="#E5E7EB" font-family="SFMono-Regular, Consolas, monospace" font-size="22">AI product builder</text>
    <text x="36" y="194" fill="#FCA5A5" font-family="SFMono-Regular, Consolas, monospace" font-size="18">TypeScript / Python / UX</text>
    <rect class="typing" x="296" y="176" width="13" height="25" rx="2" fill="#F97316"/>
  </g>

  <g transform="translate(642 76)">
    <rect width="428" height="260" rx="18" fill="#030712" fill-opacity=".78" stroke="#38BDF8" stroke-opacity=".22"/>
    <text x="34" y="54" fill="#E5E7EB" font-family="SFMono-Regular, Consolas, monospace" font-size="19">TOP BUILDS</text>
    <g class="flicker">
      <rect x="34" y="78" width="304" height="42" rx="8" fill="#7F1D1D" fill-opacity=".48" stroke="#FCA5A5" stroke-opacity=".45"/>
      <text x="54" y="105" fill="#FEE2E2" font-family="SFMono-Regular, Consolas, monospace" font-size="18">music-ai</text>
    </g>
    <rect x="34" y="134" width="344" height="42" rx="8" fill="#111827" fill-opacity=".76" stroke="#38BDF8" stroke-opacity=".45"/>
    <text x="54" y="161" fill="#DBEAFE" font-family="SFMono-Regular, Consolas, monospace" font-size="18">investor-swipe</text>
    <rect x="34" y="190" width="322" height="42" rx="8" fill="#451A03" fill-opacity=".52" stroke="#FDBA74" stroke-opacity=".48"/>
    <text x="54" y="217" fill="#FFEDD5" font-family="SFMono-Regular, Consolas, monospace" font-size="18">hotel-ai-agent</text>
  </g>

  <path class="dash" d="M70 344C198 236 278 370 410 238C548 100 638 322 792 164C926 28 1006 156 1134 80" stroke="url(#blade)" stroke-width="5" stroke-linecap="round" filter="url(#hotGlow)"/>
  <path class="dash two" d="M74 112C226 190 330 44 476 150C630 264 730 70 886 178C998 256 1066 198 1132 246" stroke="#38BDF8" stroke-width="3" stroke-linecap="round" filter="url(#coldGlow)" opacity=".85"/>

  <g transform="translate(586 214)" filter="url(#hotGlow)">
    <circle class="ring" cx="0" cy="0" r="82" stroke="#EF4444" stroke-width="3"/>
    <circle class="ring two" cx="0" cy="0" r="82" stroke="#FCA5A5" stroke-width="2"/>
    <circle class="ring three" cx="0" cy="0" r="82" stroke="#F97316" stroke-width="2"/>
    <path d="M-94 0H94M0 -94V94" stroke="#FCA5A5" stroke-opacity=".55" stroke-width="2"/>
    <circle class="pulse" cx="0" cy="0" r="9" fill="#FEE2E2"/>
    <circle class="pulse two" cx="36" cy="-28" r="6" fill="#F97316"/>
    <circle class="pulse three" cx="-42" cy="32" r="6" fill="#38BDF8"/>
  </g>

  <g filter="url(#hotGlow)">
    <path class="cape" d="M566 258C506 278 472 330 438 414H704C678 348 642 288 606 258C594 272 580 272 566 258Z" fill="#050505" fill-opacity=".86" stroke="#EF4444" stroke-opacity=".36"/>
    <path d="M546 212C546 178 566 154 592 154C622 154 642 178 642 212C642 238 626 260 594 272C562 260 546 238 546 212Z" fill="#09090B" stroke="#FCA5A5" stroke-opacity=".45" stroke-width="2"/>
    <path d="M558 198C568 188 578 184 592 184C608 184 622 188 632 198C626 176 612 164 592 164C574 164 562 176 558 198Z" fill="#7F1D1D" fill-opacity=".78"/>
    <path class="eye" d="M566 210C574 205 582 205 590 210" stroke="#FEE2E2" stroke-width="3" stroke-linecap="round"/>
    <path class="eye" d="M598 210C606 205 616 205 624 210" stroke="#FEE2E2" stroke-width="3" stroke-linecap="round"/>
    <path d="M592 220L584 236H602L592 220Z" fill="#111827" stroke="#EF4444" stroke-opacity=".55"/>
    <path d="M548 188L526 140L570 170" fill="#09090B" stroke="#EF4444" stroke-opacity=".5" stroke-width="2"/>
    <path d="M636 188L660 140L616 170" fill="#09090B" stroke="#EF4444" stroke-opacity=".5" stroke-width="2"/>
  </g>

  <g filter="url(#coldGlow)" stroke-linecap="round">
    <path class="strike" d="M376 164L468 126L430 204L526 160" stroke="#FEE2E2" stroke-width="4"/>
    <path class="strike two" d="M760 284L850 246L816 324L916 280" stroke="#EF4444" stroke-width="5"/>
    <path class="strike three" d="M498 342L548 304L534 366L602 328" stroke="#38BDF8" stroke-width="3"/>
  </g>

  <g opacity=".2">
    <rect x="0" y="0" width="1200" height="430" rx="26" stroke="#FEE2E2" stroke-width="2"/>
    <path d="M0 18H1200M0 412H1200" stroke="#EF4444" stroke-width="2"/>
  </g>
</svg>
